# xmcd CD database file
#
# Track frame offsets:
#	150
#	16042
#	40057
#	62492
#	86482
#	106897
#	129672
#	158000
#	183472
#	201685
#	231392
#	253590
#
# Disc length: 3830 seconds
#
# Revision: 0
# Processed by: cddbd v1.5.2PL0 Copyright (c) Steve Scherf et al.
# Submitted via: CDex 1.70beta2
#
DISCID=9b0ef40c
DTITLE=Denise Lawrence and Storeyville Tickle - Let It Shine
DYEAR=1994
DGENRE=Jazz
TTITLE0=Papa De Da Da
TTITLE1=Seven Golden Daffodils
TTITLE2=The Way You Do The Thing You Do
TTITLE3=Saturday Night Function
TTITLE4=Mardi Gras In New Orleans
TTITLE5=Shady Green Pastures
TTITLE6=Down In Honky Tonk Town
TTITLE7=Wasted Life Blues
TTITLE8=Let Your Light From The Lighthouse Shine On Me
TTITLE9=Around The Clock Blues
TTITLE10=New Orleans Wiggle
TTITLE11=Nice Feeling
EXTD=YEAR: 1994
EXTT0=
EXTT1=
EXTT2=
EXTT3=
EXTT4=
EXTT5=
EXTT6=
EXTT7=
EXTT8=
EXTT9=
EXTT10=
EXTT11=
PLAYORDER=
